# xmcd
#
# Track frame offsets:
#       750
#       17132
#       46072
#       79793
#       113891
#       149209
#
# Disc length: 2618 seconds
#
# Revision: 2
# Processed by: cddbd v1.5.1PL0 Copyright (c) Steve Scherf et al.
# Submitted via: WaveLab 4.01
#
DISCID=4c0a3006
DTITLE=Ian van Dahl - Will I ? Maxi
DYEAR=2001
DGENRE=Vocal-Trance
TTITLE0=Ian van Dahl - Will I ((Radio Edit)
TTITLE1=Ian van Dahl - Will I (Extended Mix)
TTITLE2=Ian van Dahl - Will I (Dee Dee Extended Mix)
TTITLE3=Ian van Dahl - Will I (Voodoo and Serano Remix)
TTITLE4=Ian van Dahl - Will I (Pulsedriver Remix)
TTITLE5=Ian van Dahl - Will I (Peter Luts Remix)
EXTD=
EXTT0=
EXTT1=
EXTT2=
EXTT3=
EXTT4=
EXTT5=
PLAYORDER=
